<svg xmlns="http://www.w3.org/2000/svg" width="85.955" height="33.599" viewBox="0 0 85.955 33.599">
  <g id="Group_11321" data-name="Group 11321" transform="translate(-1681.001 -46.715)">
    <g id="Group_8444" data-name="Group 8444" transform="translate(1747.519 49.053)">
      <g id="Group_2" data-name="Group 2" transform="translate(0 0)">
        <g id="Group_3" data-name="Group 3">
          <path id="Path_12" data-name="Path 12" d="M127.948,37.9a59.759,59.759,0,0,0,.908-6.827,55.747,55.747,0,0,0-.436-10.424c-.264-2.056-.641-3.784-1.155-3.811,1.627.011,2.708,1.515,3.392,3.431A19.167,19.167,0,0,1,131.02,31.2a54.718,54.718,0,0,1-2.143,6.7Zm-2.317,0a54.792,54.792,0,0,1-2.144-6.7,19.171,19.171,0,0,1,.365-10.933c.683-1.916,1.765-3.419,3.392-3.431-.514.027-.891,1.755-1.155,3.811a55.712,55.712,0,0,0-.436,10.424,59.759,59.759,0,0,0,.908,6.827Z" transform="translate(-117.536 -16.838)" fill="#fa8807"/>
          <path id="Path_13" data-name="Path 13" d="M118.767,16.838h0Zm-1.711,22.108h5.419c4-5.653,8.118-12.155,4.791-17.423a10.043,10.043,0,0,0-8.452-4.685c2.421.024,4.782,1.679,6.171,4.685,2.252,4.874-.754,10.636-3.6,15.785-.109.2-.219.4-.328.592h-4.578c-2.935-5.3-6.268-11.315-3.929-16.377,1.389-3.006,3.75-4.661,6.171-4.685a10.042,10.042,0,0,0-8.452,4.685c-3.327,5.268.791,11.77,4.791,17.423h2Zm1.711,5.336c-.882-1.394-1.985-2.917-3.128-4.519H117.5c.463.857.894,1.688,1.265,2.485.371-.8.8-1.627,1.266-2.485H121.9c-1.143,1.6-2.246,3.125-3.128,4.519" transform="translate(-109.049 -16.838)" fill="#80167e"/>
          <path id="Path_14" data-name="Path 14" d="M133.228,90.073V92.1a.978.978,0,0,1-.975.975h-1.448a.977.977,0,0,1-.975-.975V90.073Z" transform="translate(-121.811 -61.812)" fill="#80167e"/>
        </g>
      </g>
    </g>
    <path id="Path_17181" data-name="Path 17181" d="M128.38,153.889h1.346c1.511,0,1.8.8,2.362,2.326l.61,1.664h1.689l-.9-2.324a3.087,3.087,0,0,0-2.946-1.93V153.6c1.333,0,3.415-.228,3.415-1.981,0-1.131-.977-2.119-3.339-2.119H127c-.419,0-.6.534-.6.952v7.427h1.473v-7.162c0-.343.152-.737.5-.737h1.892c1.346,0,1.994.774,1.994,1.714a1.843,1.843,0,0,1-2.083,1.714h-1.638Z" transform="translate(1589.226 -79.86)" fill="#464749"/>
    <path id="Path_17182" data-name="Path 17182" d="M184.319,159.457l-2.883-1.211a4.873,4.873,0,0,0-1.334-.334v-.024c2.426-.049,4.66-1.693,4.66-4.188,0-2.545-2.311-4.2-4.8-4.2s-4.8,1.655-4.8,4.2c0,2.4,2.044,4,4.381,4.163v.025a4.578,4.578,0,0,0-1.93.729v.284a2.266,2.266,0,0,1,1.194-.506,4.806,4.806,0,0,1,1.879.741l1.931,1.038Zm-1.257-5.757c0,1.841-.787,3.892-3.1,3.892s-3.1-2.051-3.1-3.892.787-3.892,3.1-3.892,3.1,2.051,3.1,3.892" transform="translate(1559.28 -79.86)" fill="#464749"/>
    <path id="Path_17183" data-name="Path 17183" d="M62.771,153.855h-2.63l1.206-2.4c.069-.136.141-.048.193.051Zm3.886,4.026-4.228-7.9c-.14-.266-.28-.482-.432-.482-.1,0-.2.089-.3.293L57.54,157.88h.569l1.786-3.544H63.02l1.846,3.544Z" transform="translate(1631.514 -79.86)" fill="#464749"/>
    <path id="Path_17184" data-name="Path 17184" d="M43.453,150.432l.114-.485c-3.851-1.247-6.865.348-6.9,1.952-.054,2.717,5.861,1.727,6.228,3.631.24,1.239-2.566,2.615-6.138,1.164l-.063.5c4.361,1.825,7.584-.362,7.568-2.231-.024-2.791-5.783-1.588-6.2-3.55-.235-1.093,2.507-2.1,5.391-.979" transform="translate(1644.33 -79.861)" fill="#464749"/>
    <path id="Path_17185" data-name="Path 17185" d="M84.956,150.451v7.433h1.473V153.92h3.71v-.481h-3.71v-2.723c0-.343.152-.737.5-.737H91.6V149.5H85.553c-.431,0-.6.534-.6.952" transform="translate(1614.677 -79.86)" fill="#464749"/>
    <path id="Path_17186" data-name="Path 17186" d="M104.213,153.855h-2.631l1.207-2.4c.068-.136.14-.048.192.051Zm3.886,4.026-4.229-7.9c-.14-.266-.279-.482-.431-.482-.1,0-.2.089-.3.293l-4.152,8.089h.569l1.787-3.544h3.125l1.846,3.544Z" transform="translate(1606.063 -79.86)" fill="#464749"/>
    <path id="Path_17187" data-name="Path 17187" d="M156.119,153.855h-2.631l1.207-2.4c.068-.136.14-.048.192.051Zm3.886,4.026-4.229-7.9c-.14-.266-.28-.482-.432-.482-.1,0-.2.089-.3.293l-4.152,8.089h.569l1.787-3.544h3.125l1.846,3.544Z" transform="translate(1574.187 -79.86)" fill="#464749"/>
    <path id="Path_17188" data-name="Path 17188" d="M53.6,107.922a1.045,1.045,0,0,0-.141.938c3.378-.124,7.647,1.183,7.477-2.1-.933,1.439-3.88.881-5.49.643-.267-.039-.47-.079-.655-.086a1.493,1.493,0,0,0-1.19.6m5.47-2.476c-.509-1.76-3.915-1.4-3.532,1.245a2.828,2.828,0,0,0,.2.607c.774.106,1.541.237,2.327.3-1.328-.492-1.041-2.6,1-2.151" transform="translate(1634.052 -52.141)" fill="#80167e"/>
    <path id="Path_17189" data-name="Path 17189" d="M113.506,115.8c.1,0,.206,0,.309-.009a4.5,4.5,0,0,0,2.468-.785,5.08,5.08,0,0,0,5.941-.005c2.337,1.58,7.067,1.29,7.067-2.6v-7.922a4.721,4.721,0,0,0-3.4,1.606v7.654c0,.946-2.582,1.123-2.5-.056V105a4.724,4.724,0,0,0-3.4,1.606v7.124c0,.947-2.511,1.18-2.508-.063l0-8.149a4.726,4.726,0,0,0-3.4,1.606v5.45a1.81,1.81,0,0,1-1.818,1.774H95.225c-1.743-.115-1.49-1.083-1.528-2.215,0-2.512.006-4.618.006-7.135a4.725,4.725,0,0,0-3.4,1.606c0,1.887-.006,3.38-.006,5.273v1.735c0,2.375-3.24,4.152-5.3,4.318-.406.033.048.107.174.11,3.05.064,6.533.314,8.044-3.2a2.167,2.167,0,0,0,1.733.941H98.16v.007h15.346Z" transform="translate(1614.752 -52.209)" fill="#80167e"/>
    <path id="Path_17190" data-name="Path 17190" d="M57.121,103.571V90.093a4.724,4.724,0,0,0-3.4,1.606v12.045a1.774,1.774,0,0,1-1.818,1.731l-4.893-.007c-6.216-.289-6.929-1.6-6.941-7.034V97.213a5,5,0,0,0-.954.112A5.119,5.119,0,0,0,36.678,98.8c-.007.008,0,1.09,0,1.09.139,6.106,4.593,7.08,10.2,7.078,2.369,0,4.042-.014,6.411.006.22,0,.451,0,.661-.012a3.228,3.228,0,0,0,3.174-3.386" transform="translate(1644.327 -43.378)" fill="#80167e"/>
    <path id="Path_17191" data-name="Path 17191" d="M126.94,113.83a2.2,2.2,0,0,1-2.189,2.189h-2.014a2.195,2.195,0,0,1-2.188-2.189V110.8a2.195,2.195,0,0,1,2.188-2.189h2.014a2.2,2.2,0,0,1,2.189,2.189Zm.112-6.642h-6.614a3.293,3.293,0,0,0-3.284,3.283v3.692a3.3,3.3,0,0,0,3.284,3.3l6.614-.012a3.293,3.293,0,0,0,3.283-3.283v-3.692a3.292,3.292,0,0,0-3.283-3.283" transform="translate(1594.904 -53.877)" fill="#80167e"/>
    <path id="Path_17192" data-name="Path 17192" d="M3.492,0V2.082a1,1,0,0,1-1,1H1a1,1,0,0,1-1-1V0Z" transform="translate(1720.255 50.595) rotate(180)" fill="#80167e"/>
  </g>
</svg>
